<svg xmlns="http://www.w3.org/2000/svg" version="1.1" xmlns:xlink="http://www.w3.org/1999/xlink" xmlns:svgjs="http://svgjs.dev/svgjs" width="1000" height="1000" viewBox="0 0 1000 1000"><rect width="1000" height="1000" fill="#000000"></rect><g transform="matrix(0.7,0,0,0.7,149.57575757575756,282.1265587044535)"><svg viewBox="0 0 396 247" data-background-color="#0c1d36" preserveAspectRatio="xMidYMid meet" height="623" width="1000" xmlns="http://www.w3.org/2000/svg" xmlns:xlink="http://www.w3.org/1999/xlink"><g id="tight-bounds" transform="matrix(1,0,0,1,0.2400000000000091,-0.09999999999999432)"><svg viewBox="0 0 395.52 247.2" height="247.2" width="395.52"><g><svg></svg></g><g><svg viewBox="0 0 395.52 247.2" height="247.2" width="395.52"><g transform="matrix(1,0,0,1,125.52396226415094,37.08)"><svg viewBox="0 0 144.4720754716981 173.04" height="173.04" width="144.4720754716981"><g><svg viewBox="0 0 144.4720754716981 173.04" height="173.04" width="144.4720754716981"><g><svg viewBox="0 0 144.4720754716981 173.04" height="173.04" width="144.4720754716981"><g><svg viewBox="0 0 144.4720754716981 173.04" height="173.04" width="144.4720754716981"><g><svg viewBox="0 0 144.4720754716981 173.04" height="173.04" width="144.4720754716981"><g><svg viewBox="0 0 144.4720754716981 173.04" height="173.04" width="144.4720754716981"><g transform="matrix(1,0,0,1,0,0)"><svg width="144.4720754716981" viewBox="3.5999999046325684 -31.700000762939453 26.549999237060547 31.80000114440918" height="173.04" data-palette-color="#f9cc0b"><path d="M24.5-28.1Q24.5-29.55 25.18-30.63 25.85-31.7 27.2-31.7L27.2-31.7Q28.35-31.7 29.25-31.25 30.15-30.8 30.15-29.75L30.15-29.75Q30.15-27.7 29.95-24L29.95-24Q29.75-20.4 29.75-18.65L29.75-18.65Q29.75-15.9 29.95-11.3L29.95-11.3Q30.15-6.9 30.15-4.85L30.15-4.85Q30.15-3.2 30.1-2.4L30.1-2.4Q30.1-1.6 29.23-0.83 28.35-0.05 26.55-0.05L26.55-0.05Q25.6-0.05 24.93-0.38 24.25-0.7 24-1.1L24-1.1Q21.65-3.95 17.15-10.8L17.15-10.8Q12.1-18.45 8.9-22.5L8.9-22.5Q9.3-18.9 9.3-13.7L9.3-13.7Q9.3-11.4 9.22-7.73 9.15-4.05 9-2.9L9-2.9Q8.8-1.45 8.13-0.68 7.45 0.1 6 0.1L6 0.1Q4.9 0.1 4.38-0.53 3.85-1.15 3.75-2.7L3.75-2.7Q3.7-4.75 4-8.85L4-8.85Q4.05-9.5 4.15-11.1 4.25-12.7 4.25-13.95L4.25-13.95Q4.25-17.4 3.9-21.85L3.9-21.85Q3.6-26.75 3.6-29.1L3.6-29.1Q3.6-30.3 4.48-30.95 5.35-31.6 6.5-31.6L6.5-31.6Q7.5-31.6 8.6-31.1L8.6-31.1Q12.9-25.7 20.25-15L20.25-15 24.95-7.8Q25-8.6 25-10.05L25-10.05Q25-12.6 24.9-15.55 24.8-18.5 24.75-19.55L24.75-19.55Q24.5-24.4 24.5-28.1L24.5-28.1Z" opacity="1" transform="matrix(1,0,0,1,0,0)" fill="#ffffff" class="undefined-text-0" data-fill-palette-color="primary" id="text-0"></path></svg></g></svg></g></svg></g></svg></g></svg></g></svg></g></svg></g><g></g></svg></g><defs></defs></svg><rect width="395.52" height="247.2" fill="none" stroke="none" visibility="hidden"></rect></g></svg></g></svg>